<svg width="150" height="40" viewBox="0 0 150 40" fill="none" xmlns="http://www.w3.org/2000/svg">
<mask id="mask0_1_47" style="mask-type:alpha" maskUnits="userSpaceOnUse" x="0" y="0" width="39" height="40">
<path d="M0 6.5C0 3.67157 0 2.25736 0.87868 1.37868C1.75736 0.5 3.17157 0.5 6 0.5H36.9107C38.0646 0.5 39 1.4354 39 2.58929C39 22.9745 22.4745 39.5 2.08929 39.5C0.935406 39.5 0 38.5646 0 37.4107V6.5Z" fill="#99EA48"/>
</mask>
<g mask="url(#mask0_1_47)">
<path d="M0 6.5C0 3.67157 0 2.25736 0.87868 1.37868C1.75736 0.5 3.17157 0.5 6 0.5H36.9107C38.0646 0.5 39 1.4354 39 2.58929C39 22.9745 22.4745 39.5 2.08929 39.5C0.935406 39.5 0 38.5646 0 37.4107V6.5Z" fill="#99EA48"/>
<path d="M13 20.0908C13 17.2624 13 15.8482 13.8787 14.9695C14.7574 14.0908 16.1716 14.0908 19 14.0908H28.6591C29.1486 14.0908 29.5455 14.4877 29.5455 14.9772C29.5455 23.6255 22.5346 30.6363 13.8864 30.6363C13.3968 30.6363 13 30.2394 13 29.7499V20.0908Z" fill="#191F33"/>
</g>
<path d="M48.92 19V1.72H51.812V19H48.92ZM63.1706 19V12.76C63.1706 12.352 63.1426 11.9 63.0866 11.404C63.0306 10.908 62.8986 10.432 62.6906 9.976C62.4906 9.512 62.1866 9.132 61.7786 8.836C61.3786 8.54 60.8346 8.392 60.1466 8.392C59.7786 8.392 59.4146 8.452 59.0546 8.572C58.6946 8.692 58.3666 8.9 58.0706 9.196C57.7826 9.484 57.5506 9.884 57.3746 10.396C57.1986 10.9 57.1106 11.548 57.1106 12.34L55.3946 11.608C55.3946 10.504 55.6066 9.504 56.0306 8.608C56.4626 7.712 57.0946 7 57.9266 6.472C58.7586 5.936 59.7826 5.668 60.9986 5.668C61.9586 5.668 62.7506 5.828 63.3746 6.148C63.9986 6.468 64.4946 6.876 64.8626 7.372C65.2306 7.868 65.5026 8.396 65.6786 8.956C65.8546 9.516 65.9666 10.048 66.0146 10.552C66.0706 11.048 66.0986 11.452 66.0986 11.764V19H63.1706ZM54.1826 19V6.04H56.7626V10.06H57.1106V19H54.1826ZM69.158 19V5.836C69.158 5.508 69.17 5.148 69.194 4.756C69.218 4.356 69.286 3.96 69.398 3.568C69.51 3.176 69.714 2.82 70.01 2.5C70.378 2.092 70.774 1.812 71.198 1.66C71.63 1.5 72.054 1.412 72.47 1.396C72.886 1.372 73.25 1.36 73.562 1.36H75.182V3.712H73.682C73.13 3.712 72.718 3.852 72.446 4.132C72.182 4.404 72.05 4.764 72.05 5.212V19H69.158ZM67.07 8.308V6.04H75.182V8.308H67.07ZM77.702 4.072V1.42H80.594V4.072H77.702ZM77.702 19V6.04H80.594V19H77.702ZM91.9659 19V12.76C91.9659 12.352 91.9379 11.9 91.8819 11.404C91.8259 10.908 91.6939 10.432 91.4859 9.976C91.2859 9.512 90.9819 9.132 90.5739 8.836C90.1739 8.54 89.6299 8.392 88.9419 8.392C88.5739 8.392 88.2099 8.452 87.8499 8.572C87.4899 8.692 87.1619 8.9 86.8659 9.196C86.5779 9.484 86.3459 9.884 86.1699 10.396C85.9939 10.9 85.9059 11.548 85.9059 12.34L84.1899 11.608C84.1899 10.504 84.4019 9.504 84.8259 8.608C85.2579 7.712 85.8899 7 86.7219 6.472C87.5539 5.936 88.5779 5.668 89.7939 5.668C90.7539 5.668 91.5459 5.828 92.1699 6.148C92.7939 6.468 93.2899 6.876 93.6579 7.372C94.0259 7.868 94.2979 8.396 94.4739 8.956C94.6499 9.516 94.7619 10.048 94.8099 10.552C94.8659 11.048 94.8939 11.452 94.8939 11.764V19H91.9659ZM82.9779 19V6.04H85.5579V10.06H85.9059V19H82.9779ZM97.0653 4.072V1.42H99.9573V4.072H97.0653ZM97.0653 19V6.04H99.9573V19H97.0653ZM109.948 19C109.092 19.16 108.252 19.228 107.428 19.204C106.612 19.188 105.88 19.04 105.232 18.76C104.584 18.472 104.092 18.02 103.756 17.404C103.46 16.844 103.304 16.272 103.288 15.688C103.272 15.104 103.264 14.444 103.264 13.708V2.44H106.144V13.54C106.144 14.06 106.148 14.516 106.156 14.908C106.172 15.3 106.256 15.62 106.408 15.868C106.696 16.348 107.156 16.616 107.788 16.672C108.42 16.728 109.14 16.696 109.948 16.576V19ZM100.912 8.308V6.04H109.948V8.308H100.912ZM111.775 4.072V1.42H114.667V4.072H111.775ZM111.775 19V6.04H114.667V19H111.775ZM55.076 39.36C53.812 39.36 52.672 39.14 51.656 38.7C50.648 38.26 49.816 37.632 49.16 36.816C48.512 35.992 48.1 35.016 47.924 33.888L50.924 33.432C51.18 34.456 51.704 35.248 52.496 35.808C53.296 36.368 54.216 36.648 55.256 36.648C55.872 36.648 56.452 36.552 56.996 36.36C57.54 36.168 57.98 35.888 58.316 35.52C58.66 35.152 58.832 34.7 58.832 34.164C58.832 33.924 58.792 33.704 58.712 33.504C58.632 33.296 58.512 33.112 58.352 32.952C58.2 32.792 58 32.648 57.752 32.52C57.512 32.384 57.232 32.268 56.912 32.172L52.448 30.852C52.064 30.74 51.648 30.592 51.2 30.408C50.76 30.216 50.34 29.956 49.94 29.628C49.548 29.292 49.224 28.868 48.968 28.356C48.72 27.836 48.596 27.196 48.596 26.436C48.596 25.324 48.876 24.392 49.436 23.64C50.004 22.88 50.764 22.312 51.716 21.936C52.676 21.56 53.74 21.376 54.908 21.384C56.092 21.392 57.148 21.596 58.076 21.996C59.004 22.388 59.78 22.96 60.404 23.712C61.028 24.464 61.468 25.372 61.724 26.436L58.616 26.976C58.488 26.368 58.24 25.852 57.872 25.428C57.512 24.996 57.068 24.668 56.54 24.444C56.02 24.22 55.464 24.1 54.872 24.084C54.296 24.076 53.76 24.164 53.264 24.348C52.776 24.524 52.38 24.78 52.076 25.116C51.78 25.452 51.632 25.844 51.632 26.292C51.632 26.716 51.76 27.064 52.016 27.336C52.272 27.6 52.588 27.812 52.964 27.972C53.348 28.124 53.736 28.252 54.128 28.356L57.224 29.22C57.648 29.332 58.124 29.484 58.652 29.676C59.18 29.868 59.688 30.136 60.176 30.48C60.664 30.824 61.064 31.276 61.376 31.836C61.696 32.396 61.856 33.108 61.856 33.972C61.856 34.868 61.668 35.656 61.292 36.336C60.924 37.008 60.424 37.568 59.792 38.016C59.16 38.464 58.436 38.8 57.62 39.024C56.812 39.248 55.964 39.36 55.076 39.36ZM68.9774 39.36C67.6814 39.36 66.5494 39.068 65.5814 38.484C64.6134 37.9 63.8614 37.096 63.3254 36.072C62.7974 35.04 62.5334 33.856 62.5334 32.52C62.5334 31.16 62.8054 29.968 63.3494 28.944C63.8934 27.92 64.6494 27.12 65.6174 26.544C66.5854 25.968 67.7054 25.68 68.9774 25.68C70.2814 25.68 71.4174 25.972 72.3854 26.556C73.3534 27.14 74.1054 27.948 74.6414 28.98C75.1774 30.004 75.4454 31.184 75.4454 32.52C75.4454 33.864 75.1734 35.052 74.6294 36.084C74.0934 37.108 73.3414 37.912 72.3734 38.496C71.4054 39.072 70.2734 39.36 68.9774 39.36ZM68.9774 36.648C70.1294 36.648 70.9854 36.264 71.5454 35.496C72.1054 34.728 72.3854 33.736 72.3854 32.52C72.3854 31.264 72.1014 30.264 71.5334 29.52C70.9654 28.768 70.1134 28.392 68.9774 28.392C68.2014 28.392 67.5614 28.568 67.0574 28.92C66.5614 29.264 66.1934 29.748 65.9534 30.372C65.7134 30.988 65.5934 31.704 65.5934 32.52C65.5934 33.776 65.8774 34.78 66.4454 35.532C67.0214 36.276 67.8654 36.648 68.9774 36.648ZM77.1294 39V21.36H80.0214V39H77.1294ZM87.2759 39.372C86.3159 39.372 85.5239 39.212 84.8999 38.892C84.2759 38.572 83.7799 38.164 83.4119 37.668C83.0439 37.172 82.7719 36.644 82.5959 36.084C82.4199 35.524 82.3039 34.996 82.2479 34.5C82.1999 33.996 82.1759 33.588 82.1759 33.276V26.04H85.1039V32.28C85.1039 32.68 85.1319 33.132 85.1879 33.636C85.2439 34.132 85.3719 34.612 85.5719 35.076C85.7799 35.532 86.0839 35.908 86.4839 36.204C86.8919 36.5 87.4399 36.648 88.1279 36.648C88.4959 36.648 88.8599 36.588 89.2199 36.468C89.5799 36.348 89.9039 36.144 90.1919 35.856C90.4879 35.56 90.7239 35.156 90.8999 34.644C91.0759 34.132 91.1639 33.484 91.1639 32.7L92.8799 33.432C92.8799 34.536 92.6639 35.536 92.2319 36.432C91.8079 37.328 91.1799 38.044 90.3479 38.58C89.5159 39.108 88.4919 39.372 87.2759 39.372ZM91.5119 39V34.98H91.1639V26.04H94.0679V39H91.5119ZM103.835 39C102.979 39.16 102.139 39.228 101.315 39.204C100.499 39.188 99.7674 39.04 99.1194 38.76C98.4714 38.472 97.9794 38.02 97.6434 37.404C97.3474 36.844 97.1914 36.272 97.1754 35.688C97.1594 35.104 97.1514 34.444 97.1514 33.708V22.44H100.031V33.54C100.031 34.06 100.035 34.516 100.043 34.908C100.059 35.3 100.143 35.62 100.295 35.868C100.583 36.348 101.043 36.616 101.675 36.672C102.307 36.728 103.027 36.696 103.835 36.576V39ZM94.7994 28.308V26.04H103.835V28.308H94.7994ZM105.662 24.072V21.42H108.554V24.072H105.662ZM105.662 39V26.04H108.554V39H105.662ZM116.673 39.36C115.377 39.36 114.245 39.068 113.277 38.484C112.309 37.9 111.557 37.096 111.021 36.072C110.493 35.04 110.229 33.856 110.229 32.52C110.229 31.16 110.501 29.968 111.045 28.944C111.589 27.92 112.345 27.12 113.313 26.544C114.281 25.968 115.401 25.68 116.673 25.68C117.977 25.68 119.113 25.972 120.081 26.556C121.049 27.14 121.801 27.948 122.337 28.98C122.873 30.004 123.141 31.184 123.141 32.52C123.141 33.864 122.869 35.052 122.325 36.084C121.789 37.108 121.037 37.912 120.069 38.496C119.101 39.072 117.969 39.36 116.673 39.36ZM116.673 36.648C117.825 36.648 118.681 36.264 119.241 35.496C119.801 34.728 120.081 33.736 120.081 32.52C120.081 31.264 119.797 30.264 119.229 29.52C118.661 28.768 117.809 28.392 116.673 28.392C115.897 28.392 115.257 28.568 114.753 28.92C114.257 29.264 113.889 29.748 113.649 30.372C113.409 30.988 113.289 31.704 113.289 32.52C113.289 33.776 113.573 34.78 114.141 35.532C114.717 36.276 115.561 36.648 116.673 36.648ZM133.549 39V32.76C133.549 32.352 133.521 31.9 133.465 31.404C133.409 30.908 133.277 30.432 133.069 29.976C132.869 29.512 132.565 29.132 132.157 28.836C131.757 28.54 131.213 28.392 130.525 28.392C130.157 28.392 129.793 28.452 129.433 28.572C129.073 28.692 128.745 28.9 128.449 29.196C128.161 29.484 127.929 29.884 127.753 30.396C127.577 30.9 127.489 31.548 127.489 32.34L125.773 31.608C125.773 30.504 125.985 29.504 126.409 28.608C126.841 27.712 127.473 27 128.305 26.472C129.137 25.936 130.161 25.668 131.377 25.668C132.337 25.668 133.129 25.828 133.753 26.148C134.377 26.468 134.873 26.876 135.241 27.372C135.609 27.868 135.881 28.396 136.057 28.956C136.233 29.516 136.345 30.048 136.393 30.552C136.449 31.048 136.477 31.452 136.477 31.764V39H133.549ZM124.561 39V26.04H127.141V30.06H127.489V39H124.561ZM143.412 39.36C141.812 39.36 140.512 39 139.512 38.28C138.512 37.56 137.904 36.548 137.688 35.244L140.64 34.788C140.792 35.428 141.128 35.932 141.648 36.3C142.168 36.668 142.824 36.852 143.616 36.852C144.312 36.852 144.848 36.716 145.224 36.444C145.608 36.164 145.8 35.784 145.8 35.304C145.8 35.008 145.728 34.772 145.584 34.596C145.448 34.412 145.144 34.236 144.672 34.068C144.2 33.9 143.476 33.688 142.5 33.432C141.412 33.144 140.548 32.836 139.908 32.508C139.268 32.172 138.808 31.776 138.528 31.32C138.248 30.864 138.108 30.312 138.108 29.664C138.108 28.856 138.32 28.152 138.744 27.552C139.168 26.952 139.76 26.492 140.52 26.172C141.28 25.844 142.176 25.68 143.208 25.68C144.216 25.68 145.108 25.836 145.884 26.148C146.668 26.46 147.3 26.904 147.78 27.48C148.26 28.056 148.556 28.732 148.668 29.508L145.716 30.036C145.644 29.484 145.392 29.048 144.96 28.728C144.536 28.408 143.968 28.228 143.256 28.188C142.576 28.148 142.028 28.252 141.612 28.5C141.196 28.74 140.988 29.08 140.988 29.52C140.988 29.768 141.072 29.98 141.24 30.156C141.408 30.332 141.744 30.508 142.248 30.684C142.76 30.86 143.52 31.076 144.528 31.332C145.56 31.596 146.384 31.9 147 32.244C147.624 32.58 148.072 32.984 148.344 33.456C148.624 33.928 148.764 34.5 148.764 35.172C148.764 36.476 148.288 37.5 147.336 38.244C146.392 38.988 145.084 39.36 143.412 39.36Z" fill="#020407"/>
</svg>
