<svg width="218" height="51" viewBox="0 0 218 51" fill="none" xmlns="http://www.w3.org/2000/svg">
<mask id="mask0_1_267" style="mask-type:alpha" maskUnits="userSpaceOnUse" x="0" y="0" width="51" height="51">
<path d="M0 9.27273C0 4.90152 0 2.71592 1.35796 1.35796C2.71592 0 4.90152 0 9.27273 0H48.2679C49.7768 0 51 1.22322 51 2.73214C51 29.3897 29.3897 51 2.73214 51C1.22322 51 0 49.7768 0 48.2679V9.27273Z" fill="#99EA48"/>
</mask>
<g mask="url(#mask0_1_267)">
<path d="M0 9.27273C0 4.90152 0 2.71592 1.35796 1.35796C2.71592 0 4.90152 0 9.27273 0H48.2679C49.7768 0 51 1.22322 51 2.73214C51 29.3897 29.3897 51 2.73214 51C1.22322 51 0 49.7768 0 48.2679V9.27273Z" fill="#99EA48"/>
<path d="M17 27.0454C17 22.6742 17 20.4886 18.358 19.1307C19.7159 17.7727 21.9015 17.7727 26.2727 17.7727H37.4773C38.1174 17.7727 38.6364 18.2916 38.6364 18.9318C38.6364 30.2411 29.4684 39.4091 18.1591 39.4091C17.5189 39.4091 17 38.8901 17 38.25V27.0454Z" fill="#191F33"/>
</g>
<path d="M65.7636 24V2.4H69.3786V24H65.7636ZM83.5769 24V16.2C83.5769 15.69 83.5419 15.125 83.4719 14.505C83.4019 13.885 83.2369 13.29 82.9769 12.72C82.7269 12.14 82.3469 11.665 81.8369 11.295C81.3369 10.925 80.6569 10.74 79.7969 10.74C79.3369 10.74 78.8819 10.815 78.4319 10.965C77.9819 11.115 77.5719 11.375 77.2019 11.745C76.8419 12.105 76.5519 12.605 76.3319 13.245C76.1119 13.875 76.0019 14.685 76.0019 15.675L73.8569 14.76C73.8569 13.38 74.1219 12.13 74.6519 11.01C75.1919 9.89 75.9819 9 77.0219 8.34C78.0619 7.67 79.3419 7.335 80.8619 7.335C82.0619 7.335 83.0519 7.535 83.8319 7.935C84.6119 8.335 85.2319 8.845 85.6919 9.465C86.1519 10.085 86.4919 10.745 86.7119 11.445C86.9319 12.145 87.0719 12.81 87.1319 13.44C87.2019 14.06 87.2369 14.565 87.2369 14.955V24H83.5769ZM72.3419 24V7.8H75.5669V12.825H76.0019V24H72.3419ZM91.0611 24V7.545C91.0611 7.135 91.0761 6.685 91.1061 6.195C91.1361 5.695 91.2211 5.2 91.3611 4.71C91.5011 4.22 91.7561 3.775 92.1261 3.375C92.5861 2.865 93.0811 2.515 93.6111 2.325C94.1511 2.125 94.6811 2.015 95.2011 1.995C95.7211 1.965 96.1761 1.95 96.5661 1.95H98.5911V4.89H96.7161C96.0261 4.89 95.5111 5.065 95.1711 5.415C94.8411 5.755 94.6761 6.205 94.6761 6.765V24H91.0611ZM88.4511 10.635V7.8H98.5911V10.635H88.4511ZM101.741 5.34V2.025H105.356V5.34H101.741ZM101.741 24V7.8H105.356V24H101.741ZM119.571 24V16.2C119.571 15.69 119.536 15.125 119.466 14.505C119.396 13.885 119.231 13.29 118.971 12.72C118.721 12.14 118.341 11.665 117.831 11.295C117.331 10.925 116.651 10.74 115.791 10.74C115.331 10.74 114.876 10.815 114.426 10.965C113.976 11.115 113.566 11.375 113.196 11.745C112.836 12.105 112.546 12.605 112.326 13.245C112.106 13.875 111.996 14.685 111.996 15.675L109.851 14.76C109.851 13.38 110.116 12.13 110.646 11.01C111.186 9.89 111.976 9 113.016 8.34C114.056 7.67 115.336 7.335 116.856 7.335C118.056 7.335 119.046 7.535 119.826 7.935C120.606 8.335 121.226 8.845 121.686 9.465C122.146 10.085 122.486 10.745 122.706 11.445C122.926 12.145 123.066 12.81 123.126 13.44C123.196 14.06 123.231 14.565 123.231 14.955V24H119.571ZM108.336 24V7.8H111.561V12.825H111.996V24H108.336ZM125.945 5.34V2.025H129.56V5.34H125.945ZM125.945 24V7.8H129.56V24H125.945ZM142.048 24C140.978 24.2 139.928 24.285 138.898 24.255C137.878 24.235 136.963 24.05 136.153 23.7C135.343 23.34 134.728 22.775 134.308 22.005C133.938 21.305 133.743 20.59 133.723 19.86C133.703 19.13 133.693 18.305 133.693 17.385V3.3H137.293V17.175C137.293 17.825 137.298 18.395 137.308 18.885C137.328 19.375 137.433 19.775 137.623 20.085C137.983 20.685 138.558 21.02 139.348 21.09C140.138 21.16 141.038 21.12 142.048 20.97V24ZM130.753 10.635V7.8H142.048V10.635H130.753ZM144.332 5.34V2.025H147.947V5.34H144.332ZM144.332 24V7.8H147.947V24H144.332ZM73.4586 50.45C71.8786 50.45 70.4536 50.175 69.1836 49.625C67.9236 49.075 66.8836 48.29 66.0636 47.27C65.2536 46.24 64.7386 45.02 64.5186 43.61L68.2686 43.04C68.5886 44.32 69.2436 45.31 70.2336 46.01C71.2336 46.71 72.3836 47.06 73.6836 47.06C74.4536 47.06 75.1786 46.94 75.8586 46.7C76.5386 46.46 77.0886 46.11 77.5086 45.65C77.9386 45.19 78.1536 44.625 78.1536 43.955C78.1536 43.655 78.1036 43.38 78.0036 43.13C77.9036 42.87 77.7536 42.64 77.5536 42.44C77.3636 42.24 77.1136 42.06 76.8036 41.9C76.5036 41.73 76.1536 41.585 75.7536 41.465L70.1736 39.815C69.6936 39.675 69.1736 39.49 68.6136 39.26C68.0636 39.02 67.5386 38.695 67.0386 38.285C66.5486 37.865 66.1436 37.335 65.8236 36.695C65.5136 36.045 65.3586 35.245 65.3586 34.295C65.3586 32.905 65.7086 31.74 66.4086 30.8C67.1186 29.85 68.0686 29.14 69.2586 28.67C70.4586 28.2 71.7886 27.97 73.2486 27.98C74.7286 27.99 76.0486 28.245 77.2086 28.745C78.3686 29.235 79.3386 29.95 80.1186 30.89C80.8986 31.83 81.4486 32.965 81.7686 34.295L77.8836 34.97C77.7236 34.21 77.4136 33.565 76.9536 33.035C76.5036 32.495 75.9486 32.085 75.2886 31.805C74.6386 31.525 73.9436 31.375 73.2036 31.355C72.4836 31.345 71.8136 31.455 71.1936 31.685C70.5836 31.905 70.0886 32.225 69.7086 32.645C69.3386 33.065 69.1536 33.555 69.1536 34.115C69.1536 34.645 69.3136 35.08 69.6336 35.42C69.9536 35.75 70.3486 36.015 70.8186 36.215C71.2986 36.405 71.7836 36.565 72.2736 36.695L76.1436 37.775C76.6736 37.915 77.2686 38.105 77.9286 38.345C78.5886 38.585 79.2236 38.92 79.8336 39.35C80.4436 39.78 80.9436 40.345 81.3336 41.045C81.7336 41.745 81.9336 42.635 81.9336 43.715C81.9336 44.835 81.6986 45.82 81.2286 46.67C80.7686 47.51 80.1436 48.21 79.3536 48.77C78.5636 49.33 77.6586 49.75 76.6386 50.03C75.6286 50.31 74.5686 50.45 73.4586 50.45ZM90.8354 50.45C89.2154 50.45 87.8004 50.085 86.5904 49.355C85.3804 48.625 84.4404 47.62 83.7704 46.34C83.1104 45.05 82.7804 43.57 82.7804 41.9C82.7804 40.2 83.1204 38.71 83.8004 37.43C84.4804 36.15 85.4254 35.15 86.6354 34.43C87.8454 33.71 89.2454 33.35 90.8354 33.35C92.4654 33.35 93.8854 33.715 95.0954 34.445C96.3054 35.175 97.2454 36.185 97.9154 37.475C98.5854 38.755 98.9204 40.23 98.9204 41.9C98.9204 43.58 98.5804 45.065 97.9004 46.355C97.2304 47.635 96.2904 48.64 95.0804 49.37C93.8704 50.09 92.4554 50.45 90.8354 50.45ZM90.8354 47.06C92.2754 47.06 93.3454 46.58 94.0454 45.62C94.7454 44.66 95.0954 43.42 95.0954 41.9C95.0954 40.33 94.7404 39.08 94.0304 38.15C93.3204 37.21 92.2554 36.74 90.8354 36.74C89.8654 36.74 89.0654 36.96 88.4354 37.4C87.8154 37.83 87.3554 38.435 87.0554 39.215C86.7554 39.985 86.6054 40.88 86.6054 41.9C86.6054 43.47 86.9604 44.725 87.6704 45.665C88.3904 46.595 89.4454 47.06 90.8354 47.06ZM101.025 50V27.95H104.64V50H101.025ZM113.709 50.465C112.509 50.465 111.519 50.265 110.739 49.865C109.959 49.465 109.339 48.955 108.879 48.335C108.419 47.715 108.079 47.055 107.859 46.355C107.639 45.655 107.494 44.995 107.424 44.375C107.364 43.745 107.334 43.235 107.334 42.845V33.8H110.994V41.6C110.994 42.1 111.029 42.665 111.099 43.295C111.169 43.915 111.329 44.515 111.579 45.095C111.839 45.665 112.219 46.135 112.719 46.505C113.229 46.875 113.914 47.06 114.774 47.06C115.234 47.06 115.689 46.985 116.139 46.835C116.589 46.685 116.994 46.43 117.354 46.07C117.724 45.7 118.019 45.195 118.239 44.555C118.459 43.915 118.569 43.105 118.569 42.125L120.714 43.04C120.714 44.42 120.444 45.67 119.904 46.79C119.374 47.91 118.589 48.805 117.549 49.475C116.509 50.135 115.229 50.465 113.709 50.465ZM119.004 50V44.975H118.569V33.8H122.199V50H119.004ZM134.408 50C133.338 50.2 132.288 50.285 131.258 50.255C130.238 50.235 129.323 50.05 128.513 49.7C127.703 49.34 127.088 48.775 126.668 48.005C126.298 47.305 126.103 46.59 126.083 45.86C126.063 45.13 126.053 44.305 126.053 43.385V29.3H129.653V43.175C129.653 43.825 129.658 44.395 129.668 44.885C129.688 45.375 129.793 45.775 129.983 46.085C130.343 46.685 130.918 47.02 131.708 47.09C132.498 47.16 133.398 47.12 134.408 46.97V50ZM123.113 36.635V33.8H134.408V36.635H123.113ZM136.691 31.34V28.025H140.306V31.34H136.691ZM136.691 50V33.8H140.306V50H136.691ZM150.455 50.45C148.835 50.45 147.42 50.085 146.21 49.355C145 48.625 144.06 47.62 143.39 46.34C142.73 45.05 142.4 43.57 142.4 41.9C142.4 40.2 142.74 38.71 143.42 37.43C144.1 36.15 145.045 35.15 146.255 34.43C147.465 33.71 148.865 33.35 150.455 33.35C152.085 33.35 153.505 33.715 154.715 34.445C155.925 35.175 156.865 36.185 157.535 37.475C158.205 38.755 158.54 40.23 158.54 41.9C158.54 43.58 158.2 45.065 157.52 46.355C156.85 47.635 155.91 48.64 154.7 49.37C153.49 50.09 152.075 50.45 150.455 50.45ZM150.455 47.06C151.895 47.06 152.965 46.58 153.665 45.62C154.365 44.66 154.715 43.42 154.715 41.9C154.715 40.33 154.36 39.08 153.65 38.15C152.94 37.21 151.875 36.74 150.455 36.74C149.485 36.74 148.685 36.96 148.055 37.4C147.435 37.83 146.975 38.435 146.675 39.215C146.375 39.985 146.225 40.88 146.225 41.9C146.225 43.47 146.58 44.725 147.29 45.665C148.01 46.595 149.065 47.06 150.455 47.06ZM171.55 50V42.2C171.55 41.69 171.515 41.125 171.445 40.505C171.375 39.885 171.21 39.29 170.95 38.72C170.7 38.14 170.32 37.665 169.81 37.295C169.31 36.925 168.63 36.74 167.77 36.74C167.31 36.74 166.855 36.815 166.405 36.965C165.955 37.115 165.545 37.375 165.175 37.745C164.815 38.105 164.525 38.605 164.305 39.245C164.085 39.875 163.975 40.685 163.975 41.675L161.83 40.76C161.83 39.38 162.095 38.13 162.625 37.01C163.165 35.89 163.955 35 164.995 34.34C166.035 33.67 167.315 33.335 168.835 33.335C170.035 33.335 171.025 33.535 171.805 33.935C172.585 34.335 173.205 34.845 173.665 35.465C174.125 36.085 174.465 36.745 174.685 37.445C174.905 38.145 175.045 38.81 175.105 39.44C175.175 40.06 175.21 40.565 175.21 40.955V50H171.55ZM160.315 50V33.8H163.54V38.825H163.975V50H160.315ZM183.879 50.45C181.879 50.45 180.254 50 179.004 49.1C177.754 48.2 176.994 46.935 176.724 45.305L180.414 44.735C180.604 45.535 181.024 46.165 181.674 46.625C182.324 47.085 183.144 47.315 184.134 47.315C185.004 47.315 185.674 47.145 186.144 46.805C186.624 46.455 186.864 45.98 186.864 45.38C186.864 45.01 186.774 44.715 186.594 44.495C186.424 44.265 186.044 44.045 185.454 43.835C184.864 43.625 183.959 43.36 182.739 43.04C181.379 42.68 180.299 42.295 179.499 41.885C178.699 41.465 178.124 40.97 177.774 40.4C177.424 39.83 177.249 39.14 177.249 38.33C177.249 37.32 177.514 36.44 178.044 35.69C178.574 34.94 179.314 34.365 180.264 33.965C181.214 33.555 182.334 33.35 183.624 33.35C184.884 33.35 185.999 33.545 186.969 33.935C187.949 34.325 188.739 34.88 189.339 35.6C189.939 36.32 190.309 37.165 190.449 38.135L186.759 38.795C186.669 38.105 186.354 37.56 185.814 37.16C185.284 36.76 184.574 36.535 183.684 36.485C182.834 36.435 182.149 36.565 181.629 36.875C181.109 37.175 180.849 37.6 180.849 38.15C180.849 38.46 180.954 38.725 181.164 38.945C181.374 39.165 181.794 39.385 182.424 39.605C183.064 39.825 184.014 40.095 185.274 40.415C186.564 40.745 187.594 41.125 188.364 41.555C189.144 41.975 189.704 42.48 190.044 43.07C190.394 43.66 190.569 44.375 190.569 45.215C190.569 46.845 189.974 48.125 188.784 49.055C187.604 49.985 185.969 50.45 183.879 50.45Z" fill="#020407"/>
</svg>
